<?xml version="1.0" encoding="UTF-8" standalone="no"?>
<!-- Created with Inkscape (http://www.inkscape.org/) -->

<svg
   xmlns:dc="http://purl.org/dc/elements/1.1/"
   xmlns:cc="http://creativecommons.org/ns#"
   xmlns:rdf="http://www.w3.org/1999/02/22-rdf-syntax-ns#"
   xmlns:svg="http://www.w3.org/2000/svg"
   xmlns="http://www.w3.org/2000/svg"
   xmlns:sodipodi="http://sodipodi.sourceforge.net/DTD/sodipodi-0.dtd"
   xmlns:inkscape="http://www.inkscape.org/namespaces/inkscape"
   width="210mm"
   height="297mm"
   viewBox="0 0 744.09448819 1052.3622047"
   id="svg2"
   version="1.1"
   inkscape:version="0.91 r"
   sodipodi:docname="Cover-facebook-dep-muzica.svg">
  <defs
     id="defs4">
    <filter
       inkscape:label="Film Grain"
       inkscape:menu="Image Effects"
       inkscape:menu-tooltip="Adds a small scale graininess"
       style="color-interpolation-filters:sRGB;"
       id="filter4390">
      <feTurbulence
         type="fractalNoise"
         numOctaves="3"
         baseFrequency="1"
         seed="0"
         result="result0"
         id="feTurbulence4392" />
      <feColorMatrix
         result="result4"
         values="0"
         type="saturate"
         id="feColorMatrix4394" />
      <feComposite
         in="SourceGraphic"
         in2="result4"
         operator="arithmetic"
         k1="1.25"
         k2="0.5"
         k3="0.5"
         result="result2"
         id="feComposite4396" />
      <feBlend
         result="result5"
         mode="normal"
         in="result2"
         in2="SourceGraphic"
         id="feBlend4398" />
      <feComposite
         in="result5"
         in2="SourceGraphic"
         operator="in"
         result="result3"
         id="feComposite4400" />
    </filter>
    <filter
       style="color-interpolation-filters:sRGB;"
       inkscape:label="Blur"
       id="filter4440">
      <feGaussianBlur
         stdDeviation="3.49 3.22"
         result="blur"
         id="feGaussianBlur4442" />
    </filter>
    <filter
       x="-0.15"
       width="1.3"
       y="-0.15"
       height="1.3"
       inkscape:menu-tooltip="Stone wall texture to use with not too saturated colors"
       inkscape:menu="Textures"
       inkscape:label="Stone Wall"
       style="color-interpolation-filters:sRGB;"
       id="filter4485">
      <feTurbulence
         type="turbulence"
         numOctaves="5"
         baseFrequency="0.08 0.175"
         seed="25"
         id="feTurbulence4487" />
      <feColorMatrix
         result="result5"
         values="1 0 0 0 0 0 1 0 0 0 0 0 1 0 0 0 0 0 2 0 "
         id="feColorMatrix4489" />
      <feComposite
         in="SourceGraphic"
         operator="in"
         in2="result5"
         id="feComposite4491" />
      <feMorphology
         operator="dilate"
         radius="0.65"
         result="result3"
         id="feMorphology4493" />
      <feTurbulence
         numOctaves="7"
         baseFrequency="0.05 0.09"
         type="fractalNoise"
         seed="25"
         id="feTurbulence4495" />
      <feGaussianBlur
         stdDeviation="2"
         result="result7"
         id="feGaussianBlur4497" />
      <feDisplacementMap
         in="result3"
         xChannelSelector="R"
         yChannelSelector="G"
         scale="5"
         result="result4"
         in2="result7"
         id="feDisplacementMap4499" />
      <feFlood
         flood-opacity="1"
         flood-color="rgb(255,255,255)"
         id="feFlood4501" />
      <feComposite
         k3="0.7"
         k1="0.7"
         result="result2"
         operator="arithmetic"
         in2="result4"
         id="feComposite4503" />
      <feComposite
         k2="1"
         in="result2"
         operator="arithmetic"
         in2="SourceAlpha"
         k1="1"
         result="result6"
         id="feComposite4505" />
      <feBlend
         mode="multiply"
         in2="result6"
         in="result6"
         id="feBlend4507" />
    </filter>
    <filter
       inkscape:label="Film Grain"
       inkscape:menu="Image Effects"
       inkscape:menu-tooltip="Adds a small scale graininess"
       style="color-interpolation-filters:sRGB;"
       id="filter4511">
      <feTurbulence
         type="fractalNoise"
         numOctaves="3"
         baseFrequency="1"
         seed="0"
         result="result0"
         id="feTurbulence4513" />
      <feColorMatrix
         result="result4"
         values="0"
         type="saturate"
         id="feColorMatrix4515" />
      <feComposite
         in="SourceGraphic"
         in2="result4"
         operator="arithmetic"
         k1="1.25"
         k2="0.5"
         k3="0.5"
         result="result2"
         id="feComposite4517" />
      <feBlend
         result="result5"
         mode="normal"
         in="result2"
         in2="SourceGraphic"
         id="feBlend4519" />
      <feComposite
         in="result5"
         in2="SourceGraphic"
         operator="in"
         result="result3"
         id="feComposite4521" />
    </filter>
  </defs>
  <sodipodi:namedview
     id="base"
     pagecolor="#ffffff"
     bordercolor="#666666"
     borderopacity="1.0"
     inkscape:pageopacity="0.0"
     inkscape:pageshadow="2"
     inkscape:zoom="0.70710678"
     inkscape:cx="57.834374"
     inkscape:cy="1104.0754"
     inkscape:document-units="px"
     inkscape:current-layer="layer1"
     showgrid="false"
     inkscape:window-width="1317"
     inkscape:window-height="744"
     inkscape:window-x="49"
     inkscape:window-y="24"
     inkscape:window-maximized="1" />
  <metadata
     id="metadata7">
    <rdf:RDF>
      <cc:Work
         rdf:about="">
        <dc:format>image/svg+xml</dc:format>
        <dc:type
           rdf:resource="http://purl.org/dc/dcmitype/StillImage" />
        <dc:title></dc:title>
      </cc:Work>
    </rdf:RDF>
  </metadata>
  <g
     inkscape:label="Layer 1"
     inkscape:groupmode="layer"
     id="layer1">
    <rect
       style="opacity:1;fill:#dcc3af;fill-opacity:1;stroke:none;stroke-width:1;stroke-linecap:square;stroke-linejoin:miter;stroke-miterlimit:4;stroke-dasharray:none;stroke-dashoffset:0;stroke-opacity:1"
       id="rect3336"
       width="784"
       height="520"
       x="-162.28572"
       y="-325.05133"
       inkscape:export-xdpi="89.999977"
       inkscape:export-ydpi="89.999977" />
    <rect
       inkscape:export-ydpi="89.999977"
       inkscape:export-xdpi="89.999977"
       y="-325.05133"
       x="-162.28572"
       height="520"
       width="784"
       id="rect4509"
       style="opacity:0.2;fill:#dcc3af;fill-opacity:1;stroke:none;stroke-width:1;stroke-linecap:square;stroke-linejoin:miter;stroke-miterlimit:4;stroke-dasharray:none;stroke-dashoffset:0;stroke-opacity:1;filter:url(#filter4511)" />
    <g
       inkscape:export-ydpi="89.999977"
       inkscape:export-xdpi="89.999977"
       id="g4402"
       transform="matrix(1.4826459,0,0,1.4826459,-334.95771,-532.40977)"
       style="fill:#ffffff;filter:url(#filter4440)">
      <g
         id="g4404"
         transform="translate(-4239.3306,-2556.3267)"
         style="fill:#ffffff">
        <text
           sodipodi:linespacing="125%"
           id="text4406"
           y="2865.1147"
           x="4492.1387"
           style="font-style:normal;font-variant:normal;font-weight:normal;font-stretch:normal;font-size:34.80934525px;line-height:125%;font-family:Arvo;-inkscape-font-specification:Arvo;letter-spacing:0px;word-spacing:0px;fill:#ffffff;fill-opacity:1;stroke:none"
           xml:space="preserve"
           inkscape:export-xdpi="100"
           inkscape:export-ydpi="100"><tspan
             style="font-style:normal;font-variant:normal;font-weight:normal;font-stretch:normal;font-family:Comfortaa;-inkscape-font-specification:Comfortaa;fill:#ffffff;fill-opacity:1"
             y="2865.1147"
             x="4492.1387"
             id="tspan4408"
             sodipodi:role="line">d</tspan></text>
        <path
           style="fill:#ffffff;fill-opacity:1;fill-rule:evenodd;stroke:none"
           d="m 4533.6336,2835.1326 c -6.0351,1.5798 -12.0034,3.4739 -17.8108,5.8187 -0.1955,0.079 -0.3965,0.1762 -0.5916,0.2564 l 0,3.7672 c 0.6268,-0.261 1.2623,-0.5187 1.8934,-0.7692 5.3704,-2.1346 10.8954,-3.8741 16.509,-5.3453 l 0,-3.7278 z"
           id="path4410"
           inkscape:connector-curvature="0" />
        <path
           inkscape:connector-curvature="0"
           id="path4412"
           d="m 4558.0197,2818.0123 c -0.5625,0.9174 -1.2041,1.8353 -1.9413,2.741 -2.4742,3.0391 -5.5551,5.3924 -8.8812,6.9013 -2.5166,1.1416 -5.4623,1.8925 -5.5158,1.907 -1.6975,0.4634 -3.3995,0.8546 -5.1695,1.2913 -7.0164,1.7159 -13.9609,3.8376 -20.6912,6.5549 -0.1955,0.079 -0.3907,0.1594 -0.5857,0.2395 l 0,3.7756 c 0.6268,-0.261 1.2545,-0.5192 1.8856,-0.7697 6.5562,-2.6058 13.3474,-4.6375 20.2421,-6.2897 1.7097,-0.4062 3.5064,-0.808 5.2679,-1.2786 -0.013,0.01 3.2269,-0.8116 6.0761,-2.1037 3.455,-1.567 6.6508,-3.9073 9.313,-6.8799 l 0,-6.089 z"
           style="fill:#ffffff;fill-opacity:1;fill-rule:evenodd;stroke:none" />
        <path
           style="fill:#ffffff;fill-opacity:1;fill-rule:evenodd;stroke:none"
           d="m 4533.6336,2842.3481 c -6.0351,1.5796 -12.0034,3.4737 -17.8108,5.8185 -0.1955,0.079 -0.3965,0.1763 -0.5916,0.2564 l 0,3.7673 c 0.6268,-0.2611 1.2623,-0.5187 1.8934,-0.7693 5.3704,-2.1344 10.8954,-3.8741 16.509,-5.3452 l 0,-3.7277 z"
           id="path4414"
           inkscape:connector-curvature="0" />
        <path
           style="fill:#ffffff;fill-opacity:1;fill-rule:evenodd;stroke:none"
           d="m 4558.0197,2825.2078 c -0.5625,0.9173 -1.2041,1.8352 -1.9413,2.7408 -2.4742,3.0392 -5.5551,5.3926 -8.8812,6.9014 -2.5166,1.1417 -5.4623,1.8924 -5.5158,1.907 -1.6975,0.4633 -3.3995,0.8547 -5.1695,1.2914 -7.0164,1.7159 -13.9609,3.8376 -20.6912,6.5549 -0.1955,0.079 -0.3907,0.1594 -0.5857,0.2395 l 0,3.7755 c 0.6268,-0.261 1.2545,-0.5192 1.8856,-0.7697 6.5562,-2.6057 13.3474,-4.6374 20.2421,-6.2897 1.7097,-0.4061 3.5064,-0.808 5.2679,-1.2785 -0.013,0.01 3.2269,-0.8117 6.0761,-2.1038 3.455,-1.5669 6.6508,-3.9073 9.313,-6.8799 l 0,-6.0889 z"
           id="path4416"
           inkscape:connector-curvature="0" />
        <path
           style="fill:#ffffff;fill-opacity:1;fill-rule:evenodd;stroke:none"
           d="m 4533.6336,2849.566 c -6.0351,1.5797 -12.0034,3.4738 -17.8108,5.8185 -0.1955,0.079 -0.3965,0.1764 -0.5916,0.2564 l 0,3.7673 c 0.6268,-0.2611 1.2623,-0.5187 1.8934,-0.7692 5.3704,-2.1345 10.8954,-3.8741 16.509,-5.3452 l 0,-3.7278 z"
           id="path4418"
           inkscape:connector-curvature="0" />
        <path
           inkscape:connector-curvature="0"
           id="path4420"
           d="m 4558.0197,2832.4032 c -0.5625,0.9173 -1.2041,1.8352 -1.9413,2.7409 -2.4742,3.0391 -5.5551,5.3925 -8.8812,6.9013 -2.5166,1.1417 -5.4623,1.8924 -5.5158,1.9071 -1.6975,0.4632 -3.3995,0.8546 -5.1695,1.2912 -7.0164,1.716 -13.9609,3.8377 -20.6912,6.555 -0.1955,0.079 -0.3907,0.1594 -0.5857,0.2394 l 0,3.7756 c 0.6268,-0.261 1.2545,-0.5191 1.8856,-0.7697 6.5562,-2.6057 13.3474,-4.6374 20.2421,-6.2897 1.7097,-0.4061 3.5064,-0.808 5.2679,-1.2786 -0.013,0.01 3.2269,-0.8116 6.0761,-2.1036 3.455,-1.567 6.6508,-3.9074 9.313,-6.88 l 0,-6.0889 z"
           style="fill:#ffffff;fill-opacity:1;fill-rule:evenodd;stroke:none" />
        <path
           style="fill:#ffffff;fill-opacity:1;fill-rule:evenodd;stroke:none"
           d="m 4558.0197,2839.5985 c -0.5625,0.9173 -1.2041,1.8352 -1.9413,2.7409 -2.4742,3.0391 -5.5551,5.3924 -8.8812,6.9012 -2.5166,1.1418 -5.4623,1.8925 -5.5158,1.9071 -1.6975,0.4634 -3.3995,0.8547 -5.1695,1.2914 -7.0164,1.7159 -13.9609,3.8375 -20.6912,6.5549 -0.1955,0.079 -0.3907,0.1593 -0.5857,0.2395 l 0,3.7756 c 0.6268,-0.2611 1.2545,-0.5193 1.8856,-0.7698 6.5562,-2.6058 13.3474,-4.6375 20.2421,-6.2897 1.7097,-0.4061 3.5064,-0.8079 5.2679,-1.2786 -0.013,0.01 3.2269,-0.8115 6.0761,-2.1036 3.455,-1.5671 6.6508,-3.9074 9.313,-6.88 l 0,-6.0889 z"
           id="path4422"
           inkscape:connector-curvature="0" />
        <path
           style="font-style:normal;font-variant:normal;font-weight:normal;font-stretch:normal;font-size:144px;line-height:125%;font-family:Arvo;-inkscape-font-specification:Arvo;letter-spacing:0px;word-spacing:0px;fill:#ffffff;fill-opacity:1;stroke:none"
           d="m 4499.6456,2858.7966 0,-6.1308 7.8861,3.0624 -7.8861,3.0684 z"
           id="path4424"
           inkscape:connector-curvature="0"
           inkscape:export-xdpi="100"
           inkscape:export-ydpi="100" />
      </g>
      <g
         id="g4426"
         transform="translate(-4230.2066,-2558.3267)"
         style="fill:#ffffff">
        <text
           xml:space="preserve"
           style="font-style:normal;font-variant:normal;font-weight:normal;font-stretch:normal;font-size:30.47846794px;line-height:125%;font-family:Arvo;-inkscape-font-specification:Arvo;letter-spacing:0px;word-spacing:0px;fill:#ffffff;fill-opacity:1;stroke:none"
           x="4438.5776"
           y="2905.7324"
           id="text4428"
           sodipodi:linespacing="125%"
           inkscape:export-filename="/home/ghitab/Desktop/Demis/logo nou3.png"
           inkscape:export-xdpi="100"
           inkscape:export-ydpi="100"><tspan
             sodipodi:role="line"
             id="tspan4430"
             x="4438.5776"
             y="2905.7324"
             style="font-style:normal;font-variant:normal;font-weight:normal;font-stretch:normal;font-size:31.25px;font-family:Meddon;-inkscape-font-specification:Meddon;fill:#ffffff;fill-opacity:1">Muzică </tspan></text>
        <text
           sodipodi:linespacing="125%"
           id="text4432"
           y="2920.0466"
           x="4596.8452"
           style="font-style:normal;font-variant:normal;font-weight:normal;font-stretch:normal;font-size:8.71348667px;line-height:125%;font-family:Arvo;-inkscape-font-specification:Arvo;text-align:end;letter-spacing:0px;word-spacing:0px;text-anchor:end;fill:#ffffff;fill-opacity:1;stroke:none"
           xml:space="preserve"
           inkscape:export-filename="/home/ghitab/Desktop/Demis/logo nou3.png"
           inkscape:export-xdpi="100"
           inkscape:export-ydpi="100"><tspan
             y="2920.0466"
             x="4596.8452"
             sodipodi:role="line"
             style="font-style:normal;font-variant:normal;font-weight:normal;font-stretch:normal;font-size:14.46060467px;font-family:'Old Standard TT';-inkscape-font-specification:'Old Standard TT';text-align:end;text-anchor:end;fill:#ffffff;fill-opacity:1"
             id="tspan4434">al AZSMR</tspan></text>
        <text
           inkscape:export-ydpi="100"
           inkscape:export-xdpi="100"
           inkscape:export-filename="/home/ghitab/Desktop/Demis/logo nou3.png"
           xml:space="preserve"
           style="font-style:normal;font-variant:normal;font-weight:normal;font-stretch:normal;font-size:8.56034184px;line-height:125%;font-family:Arvo;-inkscape-font-specification:Arvo;text-align:end;letter-spacing:0px;word-spacing:0px;text-anchor:end;fill:#ffffff;fill-opacity:1;stroke:none"
           x="4597.0786"
           y="2882.229"
           id="text4436"
           sodipodi:linespacing="125%"><tspan
             id="tspan4438"
             style="font-style:normal;font-variant:normal;font-weight:normal;font-stretch:normal;font-size:14.46060467px;font-family:'Old Standard TT';-inkscape-font-specification:'Old Standard TT';text-align:end;text-anchor:end;fill:#ffffff;fill-opacity:1"
             sodipodi:role="line"
             x="4597.0786"
             y="2882.229">departamentul de</tspan></text>
      </g>
    </g>
    <g
       transform="matrix(1.4826459,0,0,1.4826459,-334.9577,-532.40976)"
       id="g3446"
       inkscape:export-xdpi="89.999977"
       inkscape:export-ydpi="89.999977">
      <g
         transform="translate(-4239.3306,-2556.3267)"
         id="g4451">
        <text
           inkscape:export-ydpi="100"
           inkscape:export-xdpi="100"
           xml:space="preserve"
           style="font-style:normal;font-variant:normal;font-weight:normal;font-stretch:normal;font-size:34.80934525px;line-height:125%;font-family:Arvo;-inkscape-font-specification:Arvo;letter-spacing:0px;word-spacing:0px;fill:#1f1b20;fill-opacity:1;stroke:none"
           x="4492.1387"
           y="2865.1147"
           id="text4279"
           sodipodi:linespacing="125%"><tspan
             sodipodi:role="line"
             id="tspan4281"
             x="4492.1387"
             y="2865.1147"
             style="font-style:normal;font-variant:normal;font-weight:normal;font-stretch:normal;font-family:Comfortaa;-inkscape-font-specification:Comfortaa;fill:#1f1b20;fill-opacity:1">d</tspan></text>
        <path
           inkscape:connector-curvature="0"
           id="path4285"
           d="m 4533.6336,2835.1326 c -6.0351,1.5798 -12.0034,3.4739 -17.8108,5.8187 -0.1955,0.079 -0.3965,0.1762 -0.5916,0.2564 l 0,3.7672 c 0.6268,-0.261 1.2623,-0.5187 1.8934,-0.7692 5.3704,-2.1346 10.8954,-3.8741 16.509,-5.3453 l 0,-3.7278 z"
           style="fill:#1f1b20;fill-opacity:1;fill-rule:evenodd;stroke:none" />
        <path
           style="fill:#e64024;fill-opacity:1;fill-rule:evenodd;stroke:none"
           d="m 4558.0197,2818.0123 c -0.5625,0.9174 -1.2041,1.8353 -1.9413,2.741 -2.4742,3.0391 -5.5551,5.3924 -8.8812,6.9013 -2.5166,1.1416 -5.4623,1.8925 -5.5158,1.907 -1.6975,0.4634 -3.3995,0.8546 -5.1695,1.2913 -7.0164,1.7159 -13.9609,3.8376 -20.6912,6.5549 -0.1955,0.079 -0.3907,0.1594 -0.5857,0.2395 l 0,3.7756 c 0.6268,-0.261 1.2545,-0.5192 1.8856,-0.7697 6.5562,-2.6058 13.3474,-4.6375 20.2421,-6.2897 1.7097,-0.4062 3.5064,-0.808 5.2679,-1.2786 -0.013,0.01 3.2269,-0.8116 6.0761,-2.1037 3.455,-1.567 6.6508,-3.9073 9.313,-6.8799 l 0,-6.089 z"
           id="path4287"
           inkscape:connector-curvature="0" />
        <path
           inkscape:connector-curvature="0"
           id="path4289"
           d="m 4533.6336,2842.3481 c -6.0351,1.5796 -12.0034,3.4737 -17.8108,5.8185 -0.1955,0.079 -0.3965,0.1763 -0.5916,0.2564 l 0,3.7673 c 0.6268,-0.2611 1.2623,-0.5187 1.8934,-0.7693 5.3704,-2.1344 10.8954,-3.8741 16.509,-5.3452 l 0,-3.7277 z"
           style="fill:#1f1b20;fill-opacity:1;fill-rule:evenodd;stroke:none" />
        <path
           inkscape:connector-curvature="0"
           id="path4291"
           d="m 4558.0197,2825.2078 c -0.5625,0.9173 -1.2041,1.8352 -1.9413,2.7408 -2.4742,3.0392 -5.5551,5.3926 -8.8812,6.9014 -2.5166,1.1417 -5.4623,1.8924 -5.5158,1.907 -1.6975,0.4633 -3.3995,0.8547 -5.1695,1.2914 -7.0164,1.7159 -13.9609,3.8376 -20.6912,6.5549 -0.1955,0.079 -0.3907,0.1594 -0.5857,0.2395 l 0,3.7755 c 0.6268,-0.261 1.2545,-0.5192 1.8856,-0.7697 6.5562,-2.6057 13.3474,-4.6374 20.2421,-6.2897 1.7097,-0.4061 3.5064,-0.808 5.2679,-1.2785 -0.013,0.01 3.2269,-0.8117 6.0761,-2.1038 3.455,-1.5669 6.6508,-3.9073 9.313,-6.8799 l 0,-6.0889 z"
           style="fill:#e64024;fill-opacity:1;fill-rule:evenodd;stroke:none" />
        <path
           inkscape:connector-curvature="0"
           id="path4293"
           d="m 4533.6336,2849.566 c -6.0351,1.5797 -12.0034,3.4738 -17.8108,5.8185 -0.1955,0.079 -0.3965,0.1764 -0.5916,0.2564 l 0,3.7673 c 0.6268,-0.2611 1.2623,-0.5187 1.8934,-0.7692 5.3704,-2.1345 10.8954,-3.8741 16.509,-5.3452 l 0,-3.7278 z"
           style="fill:#1f1b20;fill-opacity:1;fill-rule:evenodd;stroke:none" />
        <path
           style="fill:#e64024;fill-opacity:1;fill-rule:evenodd;stroke:none"
           d="m 4558.0197,2832.4032 c -0.5625,0.9173 -1.2041,1.8352 -1.9413,2.7409 -2.4742,3.0391 -5.5551,5.3925 -8.8812,6.9013 -2.5166,1.1417 -5.4623,1.8924 -5.5158,1.9071 -1.6975,0.4632 -3.3995,0.8546 -5.1695,1.2912 -7.0164,1.716 -13.9609,3.8377 -20.6912,6.555 -0.1955,0.079 -0.3907,0.1594 -0.5857,0.2394 l 0,3.7756 c 0.6268,-0.261 1.2545,-0.5191 1.8856,-0.7697 6.5562,-2.6057 13.3474,-4.6374 20.2421,-6.2897 1.7097,-0.4061 3.5064,-0.808 5.2679,-1.2786 -0.013,0.01 3.2269,-0.8116 6.0761,-2.1036 3.455,-1.567 6.6508,-3.9074 9.313,-6.88 l 0,-6.0889 z"
           id="path4295"
           inkscape:connector-curvature="0" />
        <path
           inkscape:connector-curvature="0"
           id="path4297"
           d="m 4558.0197,2839.5985 c -0.5625,0.9173 -1.2041,1.8352 -1.9413,2.7409 -2.4742,3.0391 -5.5551,5.3924 -8.8812,6.9012 -2.5166,1.1418 -5.4623,1.8925 -5.5158,1.9071 -1.6975,0.4634 -3.3995,0.8547 -5.1695,1.2914 -7.0164,1.7159 -13.9609,3.8375 -20.6912,6.5549 -0.1955,0.079 -0.3907,0.1593 -0.5857,0.2395 l 0,3.7756 c 0.6268,-0.2611 1.2545,-0.5193 1.8856,-0.7698 6.5562,-2.6058 13.3474,-4.6375 20.2421,-6.2897 1.7097,-0.4061 3.5064,-0.8079 5.2679,-1.2786 -0.013,0.01 3.2269,-0.8115 6.0761,-2.1036 3.455,-1.5671 6.6508,-3.9074 9.313,-6.88 l 0,-6.0889 z"
           style="fill:#e64024;fill-opacity:1;fill-rule:evenodd;stroke:none" />
        <path
           inkscape:export-ydpi="100"
           inkscape:export-xdpi="100"
           inkscape:connector-curvature="0"
           id="path4299"
           d="m 4499.6456,2858.7966 0,-6.1308 7.8861,3.0624 -7.8861,3.0684 z"
           style="font-style:normal;font-variant:normal;font-weight:normal;font-stretch:normal;font-size:144px;line-height:125%;font-family:Arvo;-inkscape-font-specification:Arvo;letter-spacing:0px;word-spacing:0px;fill:#e64024;fill-opacity:1;stroke:none" />
      </g>
      <g
         transform="translate(-4230.2066,-2558.3267)"
         id="g4463">
        <text
           inkscape:export-ydpi="100"
           inkscape:export-xdpi="100"
           inkscape:export-filename="/home/ghitab/Desktop/Demis/logo nou3.png"
           sodipodi:linespacing="125%"
           id="text4303"
           y="2905.7324"
           x="4438.5776"
           style="font-style:normal;font-variant:normal;font-weight:normal;font-stretch:normal;font-size:30.47846794px;line-height:125%;font-family:Arvo;-inkscape-font-specification:Arvo;letter-spacing:0px;word-spacing:0px;fill:#e64024;fill-opacity:1;stroke:none"
           xml:space="preserve"><tspan
             style="font-style:normal;font-variant:normal;font-weight:normal;font-stretch:normal;font-size:31.25px;font-family:Meddon;-inkscape-font-specification:Meddon;fill:#e64024;fill-opacity:1"
             y="2905.7324"
             x="4438.5776"
             id="tspan4305"
             sodipodi:role="line">Muzică </tspan></text>
        <text
           inkscape:export-ydpi="100"
           inkscape:export-xdpi="100"
           inkscape:export-filename="/home/ghitab/Desktop/Demis/logo nou3.png"
           xml:space="preserve"
           style="font-style:normal;font-variant:normal;font-weight:normal;font-stretch:normal;font-size:8.71348667px;line-height:125%;font-family:Arvo;-inkscape-font-specification:Arvo;text-align:end;letter-spacing:0px;word-spacing:0px;text-anchor:end;fill:#1f1b20;fill-opacity:1;stroke:none"
           x="4596.8452"
           y="2920.0466"
           id="text4307"
           sodipodi:linespacing="125%"><tspan
             id="tspan4309"
             style="font-style:normal;font-variant:normal;font-weight:normal;font-stretch:normal;font-size:14.46060467px;font-family:'Old Standard TT';-inkscape-font-specification:'Old Standard TT';text-align:end;text-anchor:end;fill:#1f1b20;fill-opacity:1"
             sodipodi:role="line"
             x="4596.8452"
             y="2920.0466">al AZSMR</tspan></text>
        <text
           sodipodi:linespacing="125%"
           id="text4311"
           y="2882.229"
           x="4597.0786"
           style="font-style:normal;font-variant:normal;font-weight:normal;font-stretch:normal;font-size:8.56034184px;line-height:125%;font-family:Arvo;-inkscape-font-specification:Arvo;text-align:end;letter-spacing:0px;word-spacing:0px;text-anchor:end;fill:#1f1b20;fill-opacity:1;stroke:none"
           xml:space="preserve"
           inkscape:export-filename="/home/ghitab/Desktop/Demis/logo nou3.png"
           inkscape:export-xdpi="100"
           inkscape:export-ydpi="100"><tspan
             y="2882.229"
             x="4597.0786"
             sodipodi:role="line"
             style="font-style:normal;font-variant:normal;font-weight:normal;font-stretch:normal;font-size:14.46060467px;font-family:'Old Standard TT';-inkscape-font-specification:'Old Standard TT';text-align:end;text-anchor:end;fill:#1f1b20;fill-opacity:1"
             id="tspan4313">departamentul de</tspan></text>
      </g>
    </g>
  </g>
</svg>
